<svg width="329" height="309" viewBox="0 0 329 309" fill="none" xmlns="http://www.w3.org/2000/svg">
<path d="M83.6213 308.679C50.9637 308.679 23.6341 283.902 20.4418 251.401L0.201749 45.336C-2.18381 21.0485 16.8986 0 41.303 0C63.4179 0 81.608 17.4206 82.5634 39.5148L90.961 233.714L196.893 31.3446C206.98 12.0755 226.931 0 248.68 0C278.718 0 303.867 22.7672 306.845 52.6575L328.25 267.489C330.448 289.545 313.126 308.679 290.96 308.679C271.653 308.679 255.506 294.011 253.658 274.793L236.173 93.0447L139.706 274.94C128.696 295.699 107.12 308.679 83.6213 308.679Z" fill="#FFAC1C"/>
</svg>
